<svg id="visual" viewBox="0 0 900 450" width="900" height="450" xmlns="http://www.w3.org/2000/svg" xmlns:xlink="http://www.w3.org/1999/xlink" version="1.1"><rect x="0" y="0" width="900" height="450" fill="#001220"></rect><defs><linearGradient id="grad1_0" x1="50%" y1="0%" x2="100%" y2="100%"><stop offset="10%" stop-color="#ffc107" stop-opacity="1"></stop><stop offset="90%" stop-color="#ffc107" stop-opacity="1"></stop></linearGradient></defs><defs><linearGradient id="grad1_1" x1="50%" y1="0%" x2="100%" y2="100%"><stop offset="10%" stop-color="#ffc107" stop-opacity="1"></stop><stop offset="90%" stop-color="#66a733" stop-opacity="1"></stop></linearGradient></defs><defs><linearGradient id="grad1_2" x1="50%" y1="0%" x2="100%" y2="100%"><stop offset="10%" stop-color="#00785c" stop-opacity="1"></stop><stop offset="90%" stop-color="#66a733" stop-opacity="1"></stop></linearGradient></defs><defs><linearGradient id="grad1_3" x1="50%" y1="0%" x2="100%" y2="100%"><stop offset="10%" stop-color="#00785c" stop-opacity="1"></stop><stop offset="90%" stop-color="#004354" stop-opacity="1"></stop></linearGradient></defs><defs><linearGradient id="grad1_4" x1="50%" y1="0%" x2="100%" y2="100%"><stop offset="10%" stop-color="#001220" stop-opacity="1"></stop><stop offset="90%" stop-color="#004354" stop-opacity="1"></stop></linearGradient></defs><defs><linearGradient id="grad2_0" x1="0%" y1="0%" x2="50%" y2="100%"><stop offset="10%" stop-color="#ffc107" stop-opacity="1"></stop><stop offset="90%" stop-color="#ffc107" stop-opacity="1"></stop></linearGradient></defs><defs><linearGradient id="grad2_1" x1="0%" y1="0%" x2="50%" y2="100%"><stop offset="10%" stop-color="#66a733" stop-opacity="1"></stop><stop offset="90%" stop-color="#ffc107" stop-opacity="1"></stop></linearGradient></defs><defs><linearGradient id="grad2_2" x1="0%" y1="0%" x2="50%" y2="100%"><stop offset="10%" stop-color="#66a733" stop-opacity="1"></stop><stop offset="90%" stop-color="#00785c" stop-opacity="1"></stop></linearGradient></defs><defs><linearGradient id="grad2_3" x1="0%" y1="0%" x2="50%" y2="100%"><stop offset="10%" stop-color="#004354" stop-opacity="1"></stop><stop offset="90%" stop-color="#00785c" stop-opacity="1"></stop></linearGradient></defs><defs><linearGradient id="grad2_4" x1="0%" y1="0%" x2="50%" y2="100%"><stop offset="10%" stop-color="#004354" stop-opacity="1"></stop><stop offset="90%" stop-color="#001220" stop-opacity="1"></stop></linearGradient></defs><g transform="translate(900, 0)"><path d="M0 270C-36.1 267.4 -72.3 264.9 -103.3 249.4C-134.4 234 -160.3 205.7 -176.8 176.8C-193.3 147.9 -200.4 118.3 -214.3 88.8C-228.3 59.2 -249.2 29.6 -270 0L0 0Z" fill="#002a3d"></path><path d="M0 216C-28.9 214 -57.8 211.9 -82.7 199.6C-107.5 187.2 -128.2 164.6 -141.4 141.4C-154.6 118.3 -160.3 94.7 -171.5 71C-182.6 47.4 -199.3 23.7 -216 0L0 0Z" fill="#005e5f"></path><path d="M0 162C-21.7 160.5 -43.4 158.9 -62 149.7C-80.6 140.4 -96.2 123.4 -106.1 106.1C-116 88.7 -120.2 71 -128.6 53.3C-137 35.5 -149.5 17.8 -162 0L0 0Z" fill="#02914c"></path><path d="M0 108C-14.5 107 -28.9 106 -41.3 99.8C-53.7 93.6 -64.1 82.3 -70.7 70.7C-77.3 59.1 -80.1 47.3 -85.7 35.5C-91.3 23.7 -99.7 11.8 -108 0L0 0Z" fill="#b0b80f"></path><path d="M0 54C-7.2 53.5 -14.5 53 -20.7 49.9C-26.9 46.8 -32.1 41.1 -35.4 35.4C-38.7 29.6 -40.1 23.7 -42.9 17.8C-45.7 11.8 -49.8 5.9 -54 0L0 0Z" fill="#ffc107"></path></g><g transform="translate(0, 450)"><path d="M0 -270C23.9 -241.1 47.8 -212.2 84.6 -204.2C121.4 -196.2 171.1 -209.1 190.9 -190.9C210.7 -172.7 200.6 -123.5 208.8 -86.5C217 -49.5 243.5 -24.7 270 0L0 0Z" fill="#002a3d"></path><path d="M0 -216C19.1 -192.9 38.2 -169.7 67.7 -163.3C97.1 -156.9 136.9 -167.3 152.7 -152.7C168.6 -138.2 160.5 -98.8 167 -69.2C173.6 -39.6 194.8 -19.8 216 0L0 0Z" fill="#005e5f"></path><path d="M0 -162C14.3 -144.7 28.7 -127.3 50.7 -122.5C72.8 -117.7 102.7 -125.5 114.6 -114.6C126.4 -103.6 120.4 -74.1 125.3 -51.9C130.2 -29.7 146.1 -14.8 162 0L0 0Z" fill="#02914c"></path><path d="M0 -108C9.6 -96.4 19.1 -84.9 33.8 -81.7C48.6 -78.5 68.4 -83.6 76.4 -76.4C84.3 -69.1 80.2 -49.4 83.5 -34.6C86.8 -19.8 97.4 -9.9 108 0L0 0Z" fill="#b0b80f"></path><path d="M0 -54C4.8 -48.2 9.6 -42.4 16.9 -40.8C24.3 -39.2 34.2 -41.8 38.2 -38.2C42.1 -34.5 40.1 -24.7 41.8 -17.3C43.4 -9.9 48.7 -4.9 54 0L0 0Z" fill="#ffc107"></path></g></svg>